<?xml version="1.0" encoding="utf-8"?><!-- Uploaded to: SVG Repo, www.svgrepo.com, Generator: SVG Repo Mixer Tools -->
<svg fill="#000000" width="800px" height="800px" viewBox="0 0 24 24" id="print-alt-9" data-name="Flat Color" xmlns="http://www.w3.org/2000/svg" class="icon flat-color"><rect id="primary" x="2" y="5" width="20" height="12" rx="2" style="fill: rgb(0, 0, 0);"></rect><path id="secondary" d="M16,4H8A1,1,0,0,1,8,2h8a1,1,0,0,1,0,2Zm2,5H6a1,1,0,0,0-1,1V21a1,1,0,0,0,1,1H18a1,1,0,0,0,1-1V10A1,1,0,0,0,18,9Z" style="fill: rgb(44, 169, 188);"></path><path id="primary-2" data-name="primary" d="M11,18a1,1,0,0,1-.71-.29l-1-1a1,1,0,0,1,1.42-1.42l.29.3,2.29-2.3a1,1,0,0,1,1.42,1.42l-3,3A1,1,0,0,1,11,18Z" style="fill: rgb(0, 0, 0);"></path></svg>